<svg width="1024" height="1024" viewBox="0 0 1024 1024" fill="none" xmlns="http://www.w3.org/2000/svg">
<rect width="1024" height="1024" rx="200" fill="black"/>
<path d="M186.46 676H70.4446V348.727H187.419C220.338 348.727 248.676 355.279 272.433 368.383C296.19 381.38 314.461 400.077 327.245 424.473C340.136 448.869 346.581 478.06 346.581 512.044C346.581 546.135 340.136 575.432 327.245 599.935C314.461 624.437 296.084 643.241 272.114 656.344C248.25 669.448 219.699 676 186.46 676ZM139.638 616.714H183.584C204.038 616.714 221.244 613.092 235.2 605.847C249.262 598.496 259.809 587.151 266.84 571.81C273.978 556.362 277.547 536.44 277.547 512.044C277.547 487.861 273.978 468.099 266.84 452.758C259.809 437.417 249.315 426.124 235.359 418.88C221.403 411.636 204.198 408.013 183.744 408.013H139.638V616.714ZM397.837 676V348.727H618.363V405.776H467.031V483.759H607.017V540.808H467.031V618.951H619.002V676H397.837ZM732.501 348.727L811.602 597.378H814.638L893.9 348.727H970.604L857.785 676H768.616L655.636 348.727H732.501Z" fill="white"/>
</svg>
