<svg width="1024" height="1024" viewBox="0 0 1024 1024" fill="none" xmlns="http://www.w3.org/2000/svg">
<rect width="1024" height="1024" rx="200" fill="black"/>
<path d="M259.358 639H169.124V384.455H260.104C285.707 384.455 307.748 389.55 326.226 399.742C344.704 409.851 358.914 424.393 368.857 443.368C378.883 462.343 383.896 485.046 383.896 511.479C383.896 537.994 378.883 560.78 368.857 579.838C358.914 598.896 344.621 613.521 325.977 623.712C307.417 633.904 285.21 639 259.358 639ZM222.941 592.888H257.121C273.03 592.888 286.412 590.071 297.266 584.437C308.204 578.719 316.407 569.895 321.876 557.963C327.427 545.948 330.203 530.454 330.203 511.479C330.203 492.67 327.427 477.299 321.876 465.367C316.407 453.435 308.245 444.652 297.391 439.018C286.536 433.383 273.154 430.566 257.245 430.566H222.941V592.888ZM423.762 639V384.455H595.282V428.826H477.58V489.479H586.458V533.851H477.58V594.629H595.779V639H423.762ZM684.056 384.455L745.58 577.849H747.941L809.589 384.455H869.248L781.499 639H712.146L624.273 384.455H684.056Z" fill="white"/>
</svg>
